<svg id="Layer_1" data-name="Layer 1" xmlns="http://www.w3.org/2000/svg" viewBox="0 0 23 23"><defs><style>.cls-1{fill:#e1f1d0;}.cls-2{fill:#bfe6d6;}</style></defs><title>computer</title><path class="cls-1" d="M11.5,22.5a11,11,0,1,1,11-11A11,11,0,0,1,11.5,22.5Z"/><path class="cls-2" d="M11.5,1A10.5,10.5,0,1,1,1,11.5,10.51,10.51,0,0,1,11.5,1m0-1A11.5,11.5,0,1,0,23,11.5,11.5,11.5,0,0,0,11.5,0Z"/><polygon points="10.81 15 8 15 8 17 16 17 16 15 13.78 15 13.78 13.29 10.81 13.29 10.81 15"/><path d="M16.19,7.81v4.48H6.88V7.81h9.32m1-1H5.88v6.48H17.19V6.81Z"/></svg>