<svg id="Layer_1" data-name="Layer 1" xmlns="http://www.w3.org/2000/svg" viewBox="0 0 23 23"><defs><style>.cls-1,.cls-4{fill:#e5e5e5;}.cls-2{fill:#fff;}.cls-3{fill:none;}.cls-3,.cls-4{stroke:#000;stroke-miterlimit:10;}.cls-4{stroke-linecap:round;}</style></defs><title>elevator</title><path class="cls-1" d="M11.5,22.5a11,11,0,1,1,11-11A11,11,0,0,1,11.5,22.5Z"/><path class="cls-2" d="M11.5,1A10.5,10.5,0,1,1,1,11.5,10.51,10.51,0,0,1,11.5,1m0-1A11.5,11.5,0,1,0,23,11.5,11.5,11.5,0,0,0,11.5,0Z"/><line class="cls-3" x1="6.63" y1="5.5" x2="6.63" y2="9.88"/><polyline class="cls-3" points="8.5 7.69 6.63 9.88 4.75 7.69"/><line class="cls-3" x1="6.63" y1="17.5" x2="6.63" y2="13.13"/><polyline class="cls-3" points="4.75 15.31 6.63 13.13 8.5 15.31"/><line class="cls-3" x1="11.5" y1="1.63" x2="11.5" y2="21.38"/><circle class="cls-4" cx="15.71" cy="5.2" r="1.45"/><circle class="cls-4" cx="15.71" cy="9.4" r="1.45"/><circle class="cls-4" cx="15.71" cy="13.6" r="1.45"/><circle class="cls-4" cx="15.71" cy="17.8" r="1.45"/></svg>