<svg id="Layer_1" data-name="Layer 1" xmlns="http://www.w3.org/2000/svg" viewBox="0 0 23 23"><defs><style>.cls-1{fill:#d31206;}.cls-2{fill:#e5e5e5;}.cls-3{fill:#fff;}</style></defs><title>emergency-exit</title><rect class="cls-1" x="0.5" y="0.5" width="22" height="22" rx="2.4" ry="2.4"/><path class="cls-2" d="M20.1,1A1.9,1.9,0,0,1,22,2.9V20.1A1.9,1.9,0,0,1,20.1,22H2.9A1.9,1.9,0,0,1,1,20.1V2.9A1.9,1.9,0,0,1,2.9,1H20.1m0-1H2.9A2.9,2.9,0,0,0,0,2.9V20.1A2.9,2.9,0,0,0,2.9,23H20.1A2.9,2.9,0,0,0,23,20.1V2.9A2.9,2.9,0,0,0,20.1,0Z"/><polygon class="cls-3" points="7.33 2.96 7.33 16.88 5.08 19.54 16.33 19.54 18.67 17.13 18.67 3.04 7.33 2.96"/><polygon class="cls-1" points="14.81 17.1 12.2 12.39 11.63 14.6 6.42 15.72 6.71 14.03 10.1 12.96 10.4 9.58 13.06 6.24 10.2 6.44 8.54 8.71 7.47 8.11 9.24 5.3 14.75 5.01 16.52 6.74 18.03 9.1 18.57 9.36 18.57 11.39 17.41 11.08 15.5 8.04 13.7 11.41 16.83 17.1 14.81 17.1"/><path class="cls-3" d="M14.67,5.12l1.75,1.66,1.52,2.38,0,0,.05,0,.44.21v1.83l-1-.26L15.68,8.13l-.18-.29-.16.3-1.72,3.21-.05.1.05.1,3,5.45H14.87l-2.46-4.45-.24-.44L12,12.6l-.5,1.91-5,1.08.25-1.49,3.27-1,.13,0V12.9l.3-3.25L13,6.48l.28-.35-.45,0-2.64.18H10.1L10,6.42,8.51,8.58l-.9-.51L9.27,5.44l5.4-.32m.07-.2-5.59.34L7.33,8.14l1.24.7,1.64-2.3,2.64-.18L10.3,9.58l-.3,3.3L6.62,14l-.32,1.9,5.41-1.17.53-2,2.52,4.55H17l-3.21-5.75,1.72-3.21,1.87,2.94,1.29.35V9.3L18.12,9,16.59,6.66,14.74,4.91Z"/><circle class="cls-1" cx="15.86" cy="4.71" r="1.65"/><path class="cls-3" d="M15.86,3.16a1.55,1.55,0,1,1-1.55,1.55,1.55,1.55,0,0,1,1.55-1.55m0-.2a1.75,1.75,0,1,0,1.75,1.75A1.75,1.75,0,0,0,15.86,3Z"/></svg>