<svg id="Layer_1" data-name="Layer 1" xmlns="http://www.w3.org/2000/svg" viewBox="0 0 23 23"><defs><style>.cls-1{fill:#e5e5e5;}.cls-2{fill:#fff;}.cls-3{fill:none;stroke:#000;stroke-miterlimit:10;}</style></defs><title>escelator-down</title><path class="cls-1" d="M11.5,22.5a11,11,0,1,1,11-11A11,11,0,0,1,11.5,22.5Z"/><path class="cls-2" d="M11.5,1A10.5,10.5,0,1,1,1,11.5,10.51,10.51,0,0,1,11.5,1m0-1A11.5,11.5,0,1,0,23,11.5,11.5,11.5,0,0,0,11.5,0Z"/><path class="cls-3" d="M19.5,15.08h0a1.92,1.92,0,0,0-1.92-1.92h-.64L8,5.5H6.08A1.92,1.92,0,0,0,4.17,7.42h0A1.92,1.92,0,0,0,6.08,9.33h.64L15.67,17h1.92A1.92,1.92,0,0,0,19.5,15.08Z"/><polygon points="17.31 6.02 14.53 8.89 18.08 9.54 17.31 6.02"/><line class="cls-3" x1="12.86" y1="4.44" x2="16.36" y2="7.94"/></svg>