<svg id="Layer_1" data-name="Layer 1" xmlns="http://www.w3.org/2000/svg" viewBox="0 0 23 23"><defs><style>.cls-1{fill:#b6ea96;}.cls-2{fill:#efefef;}.cls-3{fill:none;stroke:#000;stroke-miterlimit:10;}</style></defs><title>escelator</title><path class="cls-1" d="M11.5,22A10.5,10.5,0,1,1,22,11.5,10.51,10.51,0,0,1,11.5,22Z"/><path class="cls-2" d="M11.5,2A9.5,9.5,0,1,1,2,11.5,9.51,9.51,0,0,1,11.5,2m0-2A11.5,11.5,0,1,0,23,11.5,11.5,11.5,0,0,0,11.5,0Z"/><path class="cls-3" d="M19.5,15.08h0a1.92,1.92,0,0,0-1.92-1.92h-.64L8,5.5H6.08A1.92,1.92,0,0,0,4.17,7.42h0A1.92,1.92,0,0,0,6.08,9.33h.64L15.67,17h1.92A1.92,1.92,0,0,0,19.5,15.08Z"/></svg>