<svg id="Horizontal" xmlns="http://www.w3.org/2000/svg" xmlns:xlink="http://www.w3.org/1999/xlink" viewBox="0 0 190.8 60.48"><defs><style>.cls-1{fill:#7a7d81;}.cls-2{fill:url(#linear-gradient);}.cls-3{fill:url(#linear-gradient-2);}</style><linearGradient id="linear-gradient" x1="6.0428" y1="36.8091" x2="71.0685" y2="-12.0772" gradientUnits="userSpaceOnUse"><stop offset="0" stop-color="#008db1"/><stop offset="0.0966" stop-color="#0092b5"/><stop offset="0.6442" stop-color="#00a7c9"/><stop offset="1" stop-color="#00afd0"/></linearGradient><linearGradient id="linear-gradient-2" x1="14.9334" y1="48.8299" x2="82.8896" y2="-2.2595" xlink:href="#linear-gradient"/></defs><title>Artboard 1</title><path class="cls-1" d="M63.8547,6.0313h4.29c2.2722,0,4.1815.7828,4.1815,3.367a2.8525,2.8525,0,0,1-2.3951,3.0368l2.8178,4.6817H69.82L67.504,12.6855H66.2972v4.4313H63.8547Zm2.4425,4.5876h1.44c.8931,0,2.0527-.0314,2.0527-1.2365,0-1.1113-1.0024-1.2844-1.8955-1.2844H66.2972Z"/><path class="cls-1" d="M77.1753,6.0314h2.4439V17.1167H77.1753Z"/><path class="cls-1" d="M91.9439,8.9124a2.6165,2.6165,0,0,0-2.098-.908,3.3009,3.3009,0,0,0-3.2116,3.5692,3.29,3.29,0,0,0,3.1329,3.57,2.6481,2.6481,0,0,0,2.2838-1.1895l2.0372,1.5185a4.8368,4.8368,0,0,1-4.0076,1.9254,5.6145,5.6145,0,0,1-5.9832-5.8248A5.6142,5.6142,0,0,1,90.0806,5.75a4.7566,4.7566,0,0,1,3.7415,1.6275Z"/><path class="cls-1" d="M98.373,6.0314h2.4428v4.1332H105.56V6.0314h2.4428V17.1167H105.56V12.325h-4.7439v4.7917H98.373Z"/><path class="cls-1" d="M113.5776,6.0314h2.4433v8.8313h4.5238v2.254h-6.9671Z"/><path class="cls-1" d="M128.6686,6.0314h2.0221l4.8212,11.0853h-2.7559l-.9545-2.3492h-4.3053l-.9248,2.3492h-2.6938Zm.941,3.2255-1.3466,3.4448h2.7083Z"/><path class="cls-1" d="M139.6307,6.0314H142.95l4.7131,7.7032h.0308V6.0314h2.4428V17.1167h-3.1945l-4.838-7.8909h-.0308v7.8909h-2.4422Z"/><path class="cls-1" d="M155.5221,6.0314h3.6634c3.5676,0,6.561,1.5188,6.561,5.5744,0,3.5846-2.93,5.5109-6.2322,5.5109h-3.9921Zm2.4411,8.8313h1.2687c2.27,0,3.9782-.8615,3.9782-3.3823,0-2.1767-1.7392-3.1939-3.8045-3.1939h-1.4424Z"/><path class="cls-1" d="M63.848,23.9641H67.255V36.2815h6.3106v3.1433H63.848Z"/><path class="cls-1" d="M79.769,23.9641h3.4049V39.4248H79.769Z"/><path class="cls-1" d="M90.6449,23.9641H96.41c2.7072,0,5.6547.568,5.6547,3.9305A3.4794,3.4794,0,0,1,99.4,31.3021v.0428a3.7046,3.7046,0,0,1,3.385,3.7785c0,3.2315-3.0556,4.3014-5.8076,4.3014H90.6449Zm3.4062,6.18H96.52c1.0474,0,2.1386-.4366,2.1386-1.6815,0-1.2883-1.2239-1.6152-2.2921-1.6152H94.0511Zm0,6.4h3.0562c1.07,0,2.2719-.459,2.2719-1.8135,0-1.4628-1.6373-1.7034-2.7509-1.7034H94.0511Z"/><path class="cls-1" d="M108.5882,23.9641h5.9829c3.1693,0,5.8328,1.0914,5.8328,4.6951a3.9793,3.9793,0,0,1-3.3424,4.2361l3.9306,6.5294H116.91l-3.2321-6.18h-1.6821v6.18h-3.4074Zm3.4074,6.3989h2.0092c1.2447,0,2.8607-.044,2.8607-1.7256,0-1.551-1.3981-1.79-2.6422-1.79h-2.2277Z"/><path class="cls-1" d="M131.3961,23.9641h2.817l6.7279,15.4606h-3.8431L135.7642,36.15h-6.0048L128.47,39.4248h-3.7569Zm1.3124,4.4983-1.8793,4.8049h3.7777Z"/><path class="cls-1" d="M145.9855,23.9641h5.9852c3.1671,0,5.8317,1.0914,5.8317,4.6951a3.9793,3.9793,0,0,1-3.3424,4.2361l3.9323,6.5294H154.306l-3.2315-6.18h-1.681v6.18h-3.4079Zm3.4079,6.3989h2.01c1.2446,0,2.8607-.044,2.8607-1.7256,0-1.551-1.3981-1.79-2.6422-1.79h-2.2283Z"/><path class="cls-1" d="M168.4337,32.83l-5.81-8.8663H166.86l3.2757,5.7871,3.4718-5.7871h4.04L171.8405,32.83v6.5943h-3.4068Z"/><path class="cls-1" d="M63.8547,6.0313h4.29c2.2722,0,4.1815.7828,4.1815,3.367a2.8525,2.8525,0,0,1-2.3951,3.0368l2.8178,4.6817H69.82L67.504,12.6855H66.2972v4.4313H63.8547Zm2.4425,4.5876h1.44c.8931,0,2.0527-.0314,2.0527-1.2365,0-1.1113-1.0024-1.2844-1.8955-1.2844H66.2972Z"/><path class="cls-1" d="M77.1753,6.0314h2.4439V17.1167H77.1753Z"/><path class="cls-1" d="M91.9439,8.9124a2.6165,2.6165,0,0,0-2.098-.908,3.3009,3.3009,0,0,0-3.2116,3.5692,3.29,3.29,0,0,0,3.1329,3.57,2.6481,2.6481,0,0,0,2.2838-1.1895l2.0372,1.5185a4.8368,4.8368,0,0,1-4.0076,1.9254,5.6145,5.6145,0,0,1-5.9832-5.8248A5.6142,5.6142,0,0,1,90.0806,5.75a4.7566,4.7566,0,0,1,3.7415,1.6275Z"/><path class="cls-1" d="M98.373,6.0314h2.4428v4.1332H105.56V6.0314h2.4428V17.1167H105.56V12.325h-4.7439v4.7917H98.373Z"/><path class="cls-1" d="M113.5776,6.0314h2.4433v8.8313h4.5238v2.254h-6.9671Z"/><path class="cls-1" d="M128.6686,6.0314h2.0221l4.8212,11.0853h-2.7559l-.9545-2.3492h-4.3053l-.9248,2.3492h-2.6938Zm.941,3.2255-1.3466,3.4448h2.7083Z"/><path class="cls-1" d="M139.6307,6.0314H142.95l4.7131,7.7032h.0308V6.0314h2.4428V17.1167h-3.1945l-4.838-7.8909h-.0308v7.8909h-2.4422Z"/><path class="cls-1" d="M155.5221,6.0314h3.6634c3.5676,0,6.561,1.5188,6.561,5.5744,0,3.5846-2.93,5.5109-6.2322,5.5109h-3.9921Zm2.4411,8.8313h1.2687c2.27,0,3.9782-.8615,3.9782-3.3823,0-2.1767-1.7392-3.1939-3.8045-3.1939h-1.4424Z"/><path class="cls-1" d="M63.848,23.9641H67.255V36.2815h6.3106v3.1433H63.848Z"/><path class="cls-1" d="M79.769,23.9641h3.4049V39.4248H79.769Z"/><path class="cls-1" d="M90.6449,23.9641H96.41c2.7072,0,5.6547.568,5.6547,3.9305A3.4794,3.4794,0,0,1,99.4,31.3021v.0428a3.7046,3.7046,0,0,1,3.385,3.7785c0,3.2315-3.0556,4.3014-5.8076,4.3014H90.6449Zm3.4062,6.18H96.52c1.0474,0,2.1386-.4366,2.1386-1.6815,0-1.2883-1.2239-1.6152-2.2921-1.6152H94.0511Zm0,6.4h3.0562c1.07,0,2.2719-.459,2.2719-1.8135,0-1.4628-1.6373-1.7034-2.7509-1.7034H94.0511Z"/><path class="cls-1" d="M108.5882,23.9641h5.9829c3.1693,0,5.8328,1.0914,5.8328,4.6951a3.9793,3.9793,0,0,1-3.3424,4.2361l3.9306,6.5294H116.91l-3.2321-6.18h-1.6821v6.18h-3.4074Zm3.4074,6.3989h2.0092c1.2447,0,2.8607-.044,2.8607-1.7256,0-1.551-1.3981-1.79-2.6422-1.79h-2.2277Z"/><path class="cls-1" d="M131.3961,23.9641h2.817l6.7279,15.4606h-3.8431L135.7642,36.15h-6.0048L128.47,39.4248h-3.7569Zm1.3124,4.4983-1.8793,4.8049h3.7777Z"/><path class="cls-1" d="M145.9855,23.9641h5.9852c3.1671,0,5.8317,1.0914,5.8317,4.6951a3.9793,3.9793,0,0,1-3.3424,4.2361l3.9323,6.5294H154.306l-3.2315-6.18h-1.681v6.18h-3.4079Zm3.4079,6.3989h2.01c1.2446,0,2.8607-.044,2.8607-1.7256,0-1.551-1.3981-1.79-2.6422-1.79h-2.2283Z"/><path class="cls-1" d="M168.4337,32.83l-5.81-8.8663H166.86l3.2757,5.7871,3.4718-5.7871h4.04L171.8405,32.83v6.5943h-3.4068Z"/><path class="cls-2" d="M46.599,3.5731H6.2164A2.532,2.532,0,0,0,3.6842,6.1047v33.32H46.599a2.5309,2.5309,0,0,0,2.5316-2.5322V6.1047A2.5319,2.5319,0,0,0,46.599,3.5731Z"/><path class="cls-3" d="M4.63,40.8124,25.9015,55.8093a2.5392,2.5392,0,0,0,4.0536-2.0458L29.98,43,3.6842,39.7832C3.7643,40.235,4.141,40.4665,4.63,40.8124Z"/><path class="cls-1" d="M181.2838,25.6891a2.7944,2.7944,0,0,1,.2316-1.1327,2.9642,2.9642,0,0,1,1.5521-1.5521,2.8895,2.8895,0,0,1,2.2653,0,2.9642,2.9642,0,0,1,1.5521,1.5521,2.8931,2.8931,0,0,1,0,2.2653,2.9642,2.9642,0,0,1-1.5521,1.5521,2.8895,2.8895,0,0,1-2.2653,0,2.9642,2.9642,0,0,1-1.5521-1.5521A2.7933,2.7933,0,0,1,181.2838,25.6891Zm.5174,0a2.34,2.34,0,0,0,.1882.933A2.3912,2.3912,0,0,0,183.2671,27.9a2.409,2.409,0,0,0,1.8653,0,2.3855,2.3855,0,0,0,1.2778-1.2778,2.406,2.406,0,0,0,0-1.8657,2.3827,2.3827,0,0,0-1.2778-1.2778,2.4052,2.4052,0,0,0-1.8653,0,2.3883,2.3883,0,0,0-1.2778,1.2778A2.3376,2.3376,0,0,0,181.8011,25.6891Zm1.2778-1.6854h1.2854a1.2984,1.2984,0,0,1,.89.2587.9526.9526,0,0,1,.2858.7448.88.88,0,0,1-.2246.6584.94.94,0,0,1-.5671.2587l.8625,1.4111h-.643l-.8306-1.3639H183.69v1.3639h-.6111Zm.6111,1.45h.4472c.0938,0,.1882-.0038.282-.0118a.8554.8554,0,0,0,.2552-.0587.4314.4314,0,0,0,.1837-.1413.5079.5079,0,0,0,0-.5174.4307.4307,0,0,0-.1837-.141.7753.7753,0,0,0-.2552-.0549c-.0938-.0051-.1882-.008-.282-.008H183.69Z"/></svg>