<svg id="Layer_1" data-name="Layer 1" xmlns="http://www.w3.org/2000/svg" viewBox="0 0 23 23"><defs><style>.cls-1{fill:#e1f1d0;}.cls-2{fill:#bfe6d6;}</style></defs><title>printer</title><path class="cls-1" d="M11.5,22.5a11,11,0,1,1,11-11A11,11,0,0,1,11.5,22.5Z"/><path class="cls-2" d="M11.5,1A10.5,10.5,0,1,1,1,11.5,10.51,10.51,0,0,1,11.5,1m0-1A11.5,11.5,0,1,0,23,11.5,11.5,11.5,0,0,0,11.5,0Z"/><path d="M14,7.24V17l-5,.06V7.55l5-.31m2-2.13L7,5.67V19.11L16,19V5.11Z"/><path d="M5.8,11a.81.81,0,0,1-.8-.81V9a.81.81,0,0,1,.79-.81L17.18,8a.81.81,0,0,1,.82.81v1.33a.81.81,0,0,1-.8.81Z"/><path d="M17,9V10L6,10V9.17L17,9m.2-2h0L5.78,7.18A1.81,1.81,0,0,0,4,9v1.21A1.81,1.81,0,0,0,5.81,12h0L17.2,12A1.81,1.81,0,0,0,19,10.16V8.83A1.81,1.81,0,0,0,17.2,7Z"/></svg>