<svg id="Layer_1" data-name="Layer 1" xmlns="http://www.w3.org/2000/svg" viewBox="0 0 23 23"><defs><style>.cls-1{fill:#c6e580;}.cls-2{fill:#efefef;}.cls-3{fill:none;stroke:#000;stroke-miterlimit:10;}</style></defs><title>stairs</title><path class="cls-1" d="M11.5,22A10.5,10.5,0,1,1,22,11.5,10.51,10.51,0,0,1,11.5,22Z"/><path class="cls-2" d="M11.5,2A9.5,9.5,0,1,1,2,11.5,9.51,9.51,0,0,1,11.5,2m0-2A11.5,11.5,0,1,0,23,11.5,11.5,11.5,0,0,0,11.5,0Z"/><polyline class="cls-3" points="3.5 7.5 7.13 7.5 7.13 11.13 10.75 11.13 10.75 14.75 14.38 14.75 14.38 18.38 18 18.38"/></svg>