<svg id="Layer_1" data-name="Layer 1" xmlns="http://www.w3.org/2000/svg" viewBox="0 0 23 23"><defs><style>.cls-1{fill:#e5e5e5;}.cls-2{fill:#fff;}.cls-3{fill:none;stroke:#000;stroke-miterlimit:10;}</style></defs><title>stairs</title><path class="cls-1" d="M11.5,22.5a11,11,0,1,1,11-11A11,11,0,0,1,11.5,22.5Z"/><path class="cls-2" d="M11.5,1A10.5,10.5,0,1,1,1,11.5,10.51,10.51,0,0,1,11.5,1m0-1A11.5,11.5,0,1,0,23,11.5,11.5,11.5,0,0,0,11.5,0Z"/><polyline class="cls-3" points="4 8.38 9.31 8.38 9.31 12.69 13.63 12.69 13.63 17 17.94 17"/></svg>